<mxfile host="app.diagrams.net" modified="2022-01-13T21:56:28.788Z" agent="5.0 (Windows NT 10.0; Win64; x64) AppleWebKit/537.36 (KHTML, like Gecko) Chrome/97.0.4692.71 Safari/537.36 Edg/97.0.1072.55" etag="3WrUgwH3AxPUdufwU64p" version="15.9.6" type="github">
  <diagram id="cXwblCX4jRzgXyYIROlV" name="Page-1">
    <mxGraphModel dx="1673" dy="934" grid="1" gridSize="10" guides="1" tooltips="1" connect="1" arrows="1" fold="1" page="1" pageScale="1" pageWidth="850" pageHeight="1100" math="1" shadow="0">
      <root>
        <mxCell id="0" />
        <mxCell id="1" parent="0" />
        <mxCell id="-Ol9VmeEnkd6u5UqzpCi-1" value="" style="rounded=0;whiteSpace=wrap;html=1;" vertex="1" parent="1">
          <mxGeometry x="40" y="40" width="10" height="150" as="geometry" />
        </mxCell>
        <mxCell id="-Ol9VmeEnkd6u5UqzpCi-43" style="edgeStyle=orthogonalEdgeStyle;rounded=0;orthogonalLoop=1;jettySize=auto;html=1;exitX=1;exitY=0.5;exitDx=0;exitDy=0;entryX=0;entryY=0.5;entryDx=0;entryDy=0;" edge="1" parent="1" source="-Ol9VmeEnkd6u5UqzpCi-2" target="-Ol9VmeEnkd6u5UqzpCi-42">
          <mxGeometry relative="1" as="geometry" />
        </mxCell>
        <mxCell id="-Ol9VmeEnkd6u5UqzpCi-2" value="" style="rounded=0;whiteSpace=wrap;html=1;" vertex="1" parent="1">
          <mxGeometry x="60" y="40" width="40" height="150" as="geometry" />
        </mxCell>
        <mxCell id="-Ol9VmeEnkd6u5UqzpCi-19" value="" style="shape=flexArrow;endArrow=classic;html=1;rounded=0;endWidth=8.724832214765101;endSize=2.781208053691275;width=4.966442953020134;fillColor=#f8cecc;strokeColor=#b85450;" edge="1" parent="1">
          <mxGeometry width="50" height="50" relative="1" as="geometry">
            <mxPoint x="90" y="200" as="sourcePoint" />
            <mxPoint x="90" y="220" as="targetPoint" />
          </mxGeometry>
        </mxCell>
        <mxCell id="-Ol9VmeEnkd6u5UqzpCi-36" style="edgeStyle=orthogonalEdgeStyle;rounded=0;orthogonalLoop=1;jettySize=auto;html=1;exitX=1;exitY=0.5;exitDx=0;exitDy=0;entryX=0;entryY=0.5;entryDx=0;entryDy=0;" edge="1" parent="1" source="-Ol9VmeEnkd6u5UqzpCi-20" target="-Ol9VmeEnkd6u5UqzpCi-33">
          <mxGeometry relative="1" as="geometry">
            <mxPoint x="530" y="265" as="targetPoint" />
          </mxGeometry>
        </mxCell>
        <mxCell id="-Ol9VmeEnkd6u5UqzpCi-20" value="" style="rounded=0;whiteSpace=wrap;html=1;" vertex="1" parent="1">
          <mxGeometry x="80" y="230" width="80" height="70" as="geometry" />
        </mxCell>
        <mxCell id="-Ol9VmeEnkd6u5UqzpCi-21" value="" style="shape=flexArrow;endArrow=classic;html=1;rounded=0;endWidth=8.724832214765101;endSize=2.781208053691275;width=4.966442953020134;fillColor=#f8cecc;strokeColor=#b85450;" edge="1" parent="1">
          <mxGeometry width="50" height="50" relative="1" as="geometry">
            <mxPoint x="150" y="310" as="sourcePoint" />
            <mxPoint x="150" y="330" as="targetPoint" />
          </mxGeometry>
        </mxCell>
        <mxCell id="-Ol9VmeEnkd6u5UqzpCi-30" style="edgeStyle=orthogonalEdgeStyle;rounded=0;orthogonalLoop=1;jettySize=auto;html=1;exitX=1;exitY=0.5;exitDx=0;exitDy=0;entryX=0;entryY=0.5;entryDx=0;entryDy=0;" edge="1" parent="1" source="-Ol9VmeEnkd6u5UqzpCi-22" target="-Ol9VmeEnkd6u5UqzpCi-29">
          <mxGeometry relative="1" as="geometry" />
        </mxCell>
        <mxCell id="-Ol9VmeEnkd6u5UqzpCi-22" value="" style="rounded=0;whiteSpace=wrap;html=1;" vertex="1" parent="1">
          <mxGeometry x="140" y="340" width="130" height="40" as="geometry" />
        </mxCell>
        <mxCell id="-Ol9VmeEnkd6u5UqzpCi-23" value="" style="rounded=0;whiteSpace=wrap;html=1;" vertex="1" parent="1">
          <mxGeometry x="250" y="420" width="170" height="20" as="geometry" />
        </mxCell>
        <mxCell id="-Ol9VmeEnkd6u5UqzpCi-24" value="" style="shape=flexArrow;endArrow=classic;html=1;rounded=0;endWidth=8.724832214765101;endSize=2.781208053691275;width=4.966442953020134;fillColor=#f8cecc;strokeColor=#b85450;" edge="1" parent="1">
          <mxGeometry width="50" height="50" relative="1" as="geometry">
            <mxPoint x="260" y="390" as="sourcePoint" />
            <mxPoint x="260" y="410" as="targetPoint" />
          </mxGeometry>
        </mxCell>
        <mxCell id="-Ol9VmeEnkd6u5UqzpCi-28" value="" style="shape=flexArrow;endArrow=classic;html=1;rounded=0;endWidth=8.724832214765101;endSize=2.781208053691275;width=4.966442953020134;fillColor=#d5e8d4;strokeColor=#82b366;" edge="1" parent="1">
          <mxGeometry width="50" height="50" relative="1" as="geometry">
            <mxPoint x="410" y="410" as="sourcePoint" />
            <mxPoint x="410" y="380" as="targetPoint" />
          </mxGeometry>
        </mxCell>
        <mxCell id="-Ol9VmeEnkd6u5UqzpCi-31" style="edgeStyle=orthogonalEdgeStyle;rounded=0;orthogonalLoop=1;jettySize=auto;html=1;exitX=1;exitY=0.5;exitDx=0;exitDy=0;entryX=0;entryY=0.5;entryDx=0;entryDy=0;" edge="1" parent="1" source="-Ol9VmeEnkd6u5UqzpCi-29">
          <mxGeometry relative="1" as="geometry">
            <mxPoint x="440" y="360" as="targetPoint" />
          </mxGeometry>
        </mxCell>
        <mxCell id="-Ol9VmeEnkd6u5UqzpCi-29" value="+" style="ellipse;whiteSpace=wrap;html=1;aspect=fixed;" vertex="1" parent="1">
          <mxGeometry x="400" y="350" width="20" height="20" as="geometry" />
        </mxCell>
        <mxCell id="-Ol9VmeEnkd6u5UqzpCi-32" value="" style="shape=flexArrow;endArrow=classic;html=1;rounded=0;endWidth=8.724832214765101;endSize=2.781208053691275;width=4.966442953020134;fillColor=#d5e8d4;strokeColor=#82b366;" edge="1" parent="1">
          <mxGeometry width="50" height="50" relative="1" as="geometry">
            <mxPoint x="560" y="330" as="sourcePoint" />
            <mxPoint x="560" y="280" as="targetPoint" />
          </mxGeometry>
        </mxCell>
        <mxCell id="-Ol9VmeEnkd6u5UqzpCi-38" style="edgeStyle=orthogonalEdgeStyle;rounded=0;orthogonalLoop=1;jettySize=auto;html=1;exitX=1;exitY=0.5;exitDx=0;exitDy=0;entryX=0;entryY=0.5;entryDx=0;entryDy=0;" edge="1" parent="1" source="-Ol9VmeEnkd6u5UqzpCi-33" target="-Ol9VmeEnkd6u5UqzpCi-37">
          <mxGeometry relative="1" as="geometry" />
        </mxCell>
        <mxCell id="-Ol9VmeEnkd6u5UqzpCi-33" value="+" style="ellipse;whiteSpace=wrap;html=1;aspect=fixed;" vertex="1" parent="1">
          <mxGeometry x="550" y="255" width="20" height="20" as="geometry" />
        </mxCell>
        <mxCell id="-Ol9VmeEnkd6u5UqzpCi-35" value="" style="rounded=0;whiteSpace=wrap;html=1;fillColor=#dae8fc;strokeColor=#6c8ebf;" vertex="1" parent="1">
          <mxGeometry x="440" y="340" width="130" height="40" as="geometry" />
        </mxCell>
        <mxCell id="-Ol9VmeEnkd6u5UqzpCi-37" value="" style="rounded=0;whiteSpace=wrap;html=1;fillColor=#dae8fc;strokeColor=#6c8ebf;" vertex="1" parent="1">
          <mxGeometry x="590" y="230" width="80" height="70" as="geometry" />
        </mxCell>
        <mxCell id="-Ol9VmeEnkd6u5UqzpCi-40" value="" style="rounded=0;whiteSpace=wrap;html=1;fillColor=#dae8fc;strokeColor=#6c8ebf;" vertex="1" parent="1">
          <mxGeometry x="700" y="40" width="40" height="150" as="geometry" />
        </mxCell>
        <mxCell id="-Ol9VmeEnkd6u5UqzpCi-44" style="edgeStyle=orthogonalEdgeStyle;rounded=0;orthogonalLoop=1;jettySize=auto;html=1;exitX=1;exitY=0.5;exitDx=0;exitDy=0;entryX=0;entryY=0.5;entryDx=0;entryDy=0;" edge="1" parent="1" source="-Ol9VmeEnkd6u5UqzpCi-42" target="-Ol9VmeEnkd6u5UqzpCi-40">
          <mxGeometry relative="1" as="geometry" />
        </mxCell>
        <mxCell id="-Ol9VmeEnkd6u5UqzpCi-42" value="+" style="ellipse;whiteSpace=wrap;html=1;aspect=fixed;" vertex="1" parent="1">
          <mxGeometry x="650" y="105" width="20" height="20" as="geometry" />
        </mxCell>
        <mxCell id="-Ol9VmeEnkd6u5UqzpCi-45" value="" style="shape=flexArrow;endArrow=classic;html=1;rounded=0;endWidth=8.724832214765101;endSize=2.781208053691275;width=4.966442953020134;fillColor=#d5e8d4;strokeColor=#82b366;" edge="1" parent="1">
          <mxGeometry width="50" height="50" relative="1" as="geometry">
            <mxPoint x="660" y="220" as="sourcePoint" />
            <mxPoint x="660" y="130" as="targetPoint" />
          </mxGeometry>
        </mxCell>
        <mxCell id="-Ol9VmeEnkd6u5UqzpCi-46" value="" style="rounded=0;whiteSpace=wrap;html=1;fillColor=#fff2cc;strokeColor=#d6b656;" vertex="1" parent="1">
          <mxGeometry x="750" y="40" width="10" height="150" as="geometry" />
        </mxCell>
        <mxCell id="-Ol9VmeEnkd6u5UqzpCi-47" value="W" style="text;html=1;align=center;verticalAlign=middle;resizable=0;points=[];autosize=1;strokeColor=none;fillColor=none;" vertex="1" parent="1">
          <mxGeometry x="10" y="110" width="30" height="20" as="geometry" />
        </mxCell>
        <mxCell id="-Ol9VmeEnkd6u5UqzpCi-48" value="W/2" style="text;html=1;align=center;verticalAlign=middle;resizable=0;points=[];autosize=1;strokeColor=none;fillColor=none;" vertex="1" parent="1">
          <mxGeometry x="45" y="255" width="40" height="20" as="geometry" />
        </mxCell>
        <mxCell id="-Ol9VmeEnkd6u5UqzpCi-49" value="W/4" style="text;html=1;align=center;verticalAlign=middle;resizable=0;points=[];autosize=1;strokeColor=none;fillColor=none;" vertex="1" parent="1">
          <mxGeometry x="100" y="350" width="40" height="20" as="geometry" />
        </mxCell>
        <mxCell id="-Ol9VmeEnkd6u5UqzpCi-50" value="W/8" style="text;html=1;align=center;verticalAlign=middle;resizable=0;points=[];autosize=1;strokeColor=none;fillColor=none;" vertex="1" parent="1">
          <mxGeometry x="210" y="420" width="40" height="20" as="geometry" />
        </mxCell>
        <mxCell id="-Ol9VmeEnkd6u5UqzpCi-51" value="256" style="text;html=1;align=center;verticalAlign=middle;resizable=0;points=[];autosize=1;strokeColor=none;fillColor=none;" vertex="1" parent="1">
          <mxGeometry x="315" y="400" width="40" height="20" as="geometry" />
        </mxCell>
        <mxCell id="-Ol9VmeEnkd6u5UqzpCi-52" value="1" style="text;html=1;align=center;verticalAlign=middle;resizable=0;points=[];autosize=1;strokeColor=none;fillColor=none;" vertex="1" parent="1">
          <mxGeometry x="35" y="20" width="20" height="20" as="geometry" />
        </mxCell>
        <mxCell id="-Ol9VmeEnkd6u5UqzpCi-53" value="32" style="text;html=1;align=center;verticalAlign=middle;resizable=0;points=[];autosize=1;strokeColor=none;fillColor=none;" vertex="1" parent="1">
          <mxGeometry x="65" y="20" width="30" height="20" as="geometry" />
        </mxCell>
        <mxCell id="-Ol9VmeEnkd6u5UqzpCi-54" value="128" style="text;html=1;align=center;verticalAlign=middle;resizable=0;points=[];autosize=1;strokeColor=none;fillColor=none;" vertex="1" parent="1">
          <mxGeometry x="185" y="320" width="40" height="20" as="geometry" />
        </mxCell>
        <mxCell id="-Ol9VmeEnkd6u5UqzpCi-55" value="64" style="text;html=1;align=center;verticalAlign=middle;resizable=0;points=[];autosize=1;strokeColor=none;fillColor=none;" vertex="1" parent="1">
          <mxGeometry x="105" y="210" width="30" height="20" as="geometry" />
        </mxCell>
        <mxCell id="-Ol9VmeEnkd6u5UqzpCi-56" value="32" style="text;html=1;align=center;verticalAlign=middle;resizable=0;points=[];autosize=1;strokeColor=none;fillColor=none;" vertex="1" parent="1">
          <mxGeometry x="705" y="20" width="30" height="20" as="geometry" />
        </mxCell>
        <mxCell id="-Ol9VmeEnkd6u5UqzpCi-57" value="1" style="text;html=1;align=center;verticalAlign=middle;resizable=0;points=[];autosize=1;strokeColor=none;fillColor=none;" vertex="1" parent="1">
          <mxGeometry x="745" y="20" width="20" height="20" as="geometry" />
        </mxCell>
        <mxCell id="-Ol9VmeEnkd6u5UqzpCi-58" value="128" style="text;html=1;align=center;verticalAlign=middle;resizable=0;points=[];autosize=1;strokeColor=none;fillColor=none;" vertex="1" parent="1">
          <mxGeometry x="485" y="320" width="40" height="20" as="geometry" />
        </mxCell>
        <mxCell id="-Ol9VmeEnkd6u5UqzpCi-59" value="64" style="text;html=1;align=center;verticalAlign=middle;resizable=0;points=[];autosize=1;strokeColor=none;fillColor=none;" vertex="1" parent="1">
          <mxGeometry x="615" y="210" width="30" height="20" as="geometry" />
        </mxCell>
        <mxCell id="-Ol9VmeEnkd6u5UqzpCi-60" value="" style="rounded=0;whiteSpace=wrap;html=1;fillColor=#dae8fc;strokeColor=#6c8ebf;" vertex="1" parent="1">
          <mxGeometry x="80" y="230" width="80" height="70" as="geometry" />
        </mxCell>
        <mxCell id="-Ol9VmeEnkd6u5UqzpCi-61" value="" style="rounded=0;whiteSpace=wrap;html=1;fillColor=#dae8fc;strokeColor=#6c8ebf;" vertex="1" parent="1">
          <mxGeometry x="60" y="40" width="40" height="150" as="geometry" />
        </mxCell>
        <mxCell id="-Ol9VmeEnkd6u5UqzpCi-62" value="" style="rounded=0;whiteSpace=wrap;html=1;fillColor=#dae8fc;strokeColor=#6c8ebf;" vertex="1" parent="1">
          <mxGeometry x="140" y="340" width="130" height="40" as="geometry" />
        </mxCell>
        <mxCell id="-Ol9VmeEnkd6u5UqzpCi-63" value="" style="rounded=0;whiteSpace=wrap;html=1;fillColor=#dae8fc;strokeColor=#6c8ebf;" vertex="1" parent="1">
          <mxGeometry x="250" y="420" width="170" height="20" as="geometry" />
        </mxCell>
        <mxCell id="-Ol9VmeEnkd6u5UqzpCi-64" value="" style="rounded=0;whiteSpace=wrap;html=1;fillColor=#dae8fc;strokeColor=#6c8ebf;" vertex="1" parent="1">
          <mxGeometry x="660" y="330" width="30" height="30" as="geometry" />
        </mxCell>
        <mxCell id="-Ol9VmeEnkd6u5UqzpCi-65" value="" style="shape=flexArrow;endArrow=classic;html=1;rounded=0;endWidth=8.724832214765101;endSize=2.781208053691275;width=4.966442953020134;fillColor=#f8cecc;strokeColor=#b85450;" edge="1" parent="1">
          <mxGeometry width="50" height="50" relative="1" as="geometry">
            <mxPoint x="675" y="370.0000000000001" as="sourcePoint" />
            <mxPoint x="675" y="390.0000000000001" as="targetPoint" />
          </mxGeometry>
        </mxCell>
        <mxCell id="-Ol9VmeEnkd6u5UqzpCi-66" value="" style="shape=flexArrow;endArrow=classic;html=1;rounded=0;endWidth=8.724832214765101;endSize=2.781208053691275;width=4.966442953020134;fillColor=#d5e8d4;strokeColor=#82b366;" edge="1" parent="1">
          <mxGeometry width="50" height="50" relative="1" as="geometry">
            <mxPoint x="674.79" y="420" as="sourcePoint" />
            <mxPoint x="674.92" y="400.0000000000001" as="targetPoint" />
          </mxGeometry>
        </mxCell>
        <mxCell id="-Ol9VmeEnkd6u5UqzpCi-67" value="Conv3d" style="text;html=1;align=center;verticalAlign=middle;resizable=0;points=[];autosize=1;strokeColor=none;fillColor=none;" vertex="1" parent="1">
          <mxGeometry x="690" y="335" width="60" height="20" as="geometry" />
        </mxCell>
        <mxCell id="-Ol9VmeEnkd6u5UqzpCi-68" value="MaxPool" style="text;html=1;align=center;verticalAlign=middle;resizable=0;points=[];autosize=1;strokeColor=none;fillColor=none;" vertex="1" parent="1">
          <mxGeometry x="690" y="370" width="60" height="20" as="geometry" />
        </mxCell>
        <mxCell id="-Ol9VmeEnkd6u5UqzpCi-69" value="ConvT3d" style="text;html=1;align=center;verticalAlign=middle;resizable=0;points=[];autosize=1;strokeColor=none;fillColor=none;" vertex="1" parent="1">
          <mxGeometry x="690" y="400" width="60" height="20" as="geometry" />
        </mxCell>
      </root>
    </mxGraphModel>
  </diagram>
</mxfile>
